HIERARCHY
ROOT hips
{
  OFFSET 0 10.074487846421558 1.314567655973056
  CHANNELS 6 Xposition Yposition Zposition Yrotation Xrotation Zrotation
  JOINT spine
  {
    OFFSET -7.042773748992335e-31 0.5690686926897363 0
    CHANNELS 3 Yrotation Xrotation Zrotation
    JOINT chest
    {
      OFFSET 0 1.2435964857087873 0
      CHANNELS 3 Yrotation Xrotation Zrotation
      JOINT upperChest
      {
        OFFSET 0 1.194994586872362 0
        CHANNELS 3 Yrotation Xrotation Zrotation
        JOINT neck
        {
          OFFSET 0 1.515103653293861 0
          CHANNELS 3 Yrotation Xrotation Zrotation
          JOINT head
          {
            OFFSET 0 0.8111851616465653 0
            CHANNELS 3 Yrotation Xrotation Zrotation
            JOINT leftEye
            {
              OFFSET 0.27141371691966987 0.7490044407698551 0.18219031050045686
              CHANNELS 3 Yrotation Xrotation Zrotation
              End Site
              {
                OFFSET 0.27141371691966987 0.7490044407698551 0.18219031050045686
              }
            }
            JOINT rightEye
            {
              OFFSET -0.2714136877644943 0.7490044019380786 0.18219040411850668
              CHANNELS 3 Yrotation Xrotation Zrotation
              End Site
              {
                OFFSET -0.2714136877644943 0.7490044019380786 0.18219040411850668
              }
            }
          }
        }
        JOINT leftShoulder
        {
          OFFSET 0.4137993136083964 1.1593397335613034 0
          CHANNELS 3 Yrotation Xrotation Zrotation
          JOINT leftUpperArm
          {
            OFFSET 1.0096991868951026 0 0
            CHANNELS 3 Yrotation Xrotation Zrotation
            JOINT leftLowerArm
            {
              OFFSET 2.418380967671622 0 0
              CHANNELS 3 Yrotation Xrotation Zrotation
              JOINT leftHand
              {
                OFFSET 2.361538296260114 0 0
                CHANNELS 3 Yrotation Xrotation Zrotation
                JOINT leftIndexProximal
                {
                  OFFSET 0.7243699271447109 0.08118285989887508 0.2022042461579805
                  CHANNELS 3 Yrotation Xrotation Zrotation
                  JOINT leftIndexIntermediate
                  {
                    OFFSET 0.36553107045252053 -0.010567764853200323 -0.014102670024158437
                    CHANNELS 3 Yrotation Xrotation Zrotation
                    JOINT leftIndexDistal
                    {
                      OFFSET 0.22505120770060527 -0.007821041598631284 -0.007511611613336286
                      CHANNELS 3 Yrotation Xrotation Zrotation
                      End Site
                      {
                        OFFSET 0.22505120770060527 -0.007821041598631284 -0.007511611613336286
                      }
                    }
                  }
                }
                JOINT leftLittleProximal
                {
                  OFFSET 0.6721063881632002 0.08118279568569564 -0.3209324945517917
                  CHANNELS 3 Yrotation Xrotation Zrotation
                  JOINT leftLittleIntermediate
                  {
                    OFFSET 0.34587329423120616 5.3042709780015684e-8 -5.929537746918179e-8
                    CHANNELS 3 Yrotation Xrotation Zrotation
                    JOINT leftLittleDistal
                    {
                      OFFSET 0.1992782500022232 0.0030983716482184676 0.0038310952896712935
                      CHANNELS 3 Yrotation Xrotation Zrotation
                      End Site
                      {
                        OFFSET 0.1992782500022232 0.0030983716482184676 0.0038310952896712935
                      }
                    }
                  }
                }
                JOINT leftMiddleProximal
                {
                  OFFSET 0.7301229696860206 0.08118412848995638 0.022516891543707507
                  CHANNELS 3 Yrotation Xrotation Zrotation
                  JOINT leftMiddleIntermediate
                  {
                    OFFSET 0.4076277831942017 -0.000001240188283180288 -1.6203245635504349e-7
                    CHANNELS 3 Yrotation Xrotation Zrotation
                    JOINT leftMiddleDistal
                    {
                      OFFSET 0.2514739255593972 0.0000013850839168938478 -1.8644847207816007e-8
                      CHANNELS 3 Yrotation Xrotation Zrotation
                      End Site
                      {
                        OFFSET 0.2514739255593972 0.0000013850839168938478 -1.8644847207816007e-8
                      }
                    }
                  }
                }
                JOINT leftRingProximal
                {
                  OFFSET 0.7218060861525873 0.08118280646416753 -0.1494689818508163
                  CHANNELS 3 Yrotation Xrotation Zrotation
                  JOINT leftRingIntermediate
                  {
                    OFFSET 0.3781267508900358 0.000001373626195677602 -1.4143108284514483e-7
                    CHANNELS 3 Yrotation Xrotation Zrotation
                    JOINT leftRingDistal
                    {
                      OFFSET 0.21814333268795483 -0.0027137626495670197 -0.004991775417842292
                      CHANNELS 3 Yrotation Xrotation Zrotation
                      End Site
                      {
                        OFFSET 0.21814333268795483 -0.0027137626495670197 -0.004991775417842292
                      }
                    }
                  }
                }
                JOINT leftThumbProximal
                {
                  OFFSET 0.10743676110519984 -0.16423092885053192 -0.07708859146227388
                  CHANNELS 3 Yrotation Xrotation Zrotation
                  JOINT leftThumbIntermediate
                  {
                    OFFSET 0.40350402100066307 -0.01735099334274981 0.315629965828783
                    CHANNELS 3 Yrotation Xrotation Zrotation
                    JOINT leftThumbDistal
                    {
                      OFFSET 0.2320014489535681 -0.01842351809041043 0.21271298411519196
                      CHANNELS 3 Yrotation Xrotation Zrotation
                      End Site
                      {
                        OFFSET 0.2320014489535681 -0.01842351809041043 0.21271298411519196
                      }
                    }
                  }
                }
              }
            }
          }
        }
        JOINT rightShoulder
        {
          OFFSET -0.41379931360839656 1.1593397335613034 0
          CHANNELS 3 Yrotation Xrotation Zrotation
          JOINT rightUpperArm
          {
            OFFSET -1.0096991868951024 0 0
            CHANNELS 3 Yrotation Xrotation Zrotation
            JOINT rightLowerArm
            {
              OFFSET -2.4183809676716232 0 0
              CHANNELS 3 Yrotation Xrotation Zrotation
              JOINT rightHand
              {
                OFFSET -2.3615382962601132 0 0
                CHANNELS 3 Yrotation Xrotation Zrotation
                JOINT rightIndexProximal
                {
                  OFFSET -0.7243699271447109 0.08118285989887508 0.2022042461579805
                  CHANNELS 3 Yrotation Xrotation Zrotation
                  JOINT rightIndexIntermediate
                  {
                    OFFSET -0.36553107045252053 -0.010567764853200323 -0.014102670024158437
                    CHANNELS 3 Yrotation Xrotation Zrotation
                    JOINT rightIndexDistal
                    {
                      OFFSET -0.22505120770060527 -0.007821041598631284 -0.007511611613336286
                      CHANNELS 3 Yrotation Xrotation Zrotation
                      End Site
                      {
                        OFFSET -0.22505120770060527 -0.007821041598631284 -0.007511611613336286
                      }
                    }
                  }
                }
                JOINT rightLittleProximal
                {
                  OFFSET -0.6721063881632002 0.08118279568569564 -0.3209324945517917
                  CHANNELS 3 Yrotation Xrotation Zrotation
                  JOINT rightLittleIntermediate
                  {
                    OFFSET -0.34587329423120616 5.3042709780015684e-8 -5.929537746918179e-8
                    CHANNELS 3 Yrotation Xrotation Zrotation
                    JOINT rightLittleDistal
                    {
                      OFFSET -0.1992782500022232 0.0030983716482184676 0.0038310952896712935
                      CHANNELS 3 Yrotation Xrotation Zrotation
                      End Site
                      {
                        OFFSET -0.1992782500022232 0.0030983716482184676 0.0038310952896712935
                      }
                    }
                  }
                }
                JOINT rightMiddleProximal
                {
                  OFFSET -0.7301229696860206 0.08118412848995638 0.022516891543707507
                  CHANNELS 3 Yrotation Xrotation Zrotation
                  JOINT rightMiddleIntermediate
                  {
                    OFFSET -0.4076277831942017 -0.000001240188283180288 -1.6203245635504349e-7
                    CHANNELS 3 Yrotation Xrotation Zrotation
                    JOINT rightMiddleDistal
                    {
                      OFFSET -0.2514739255593972 0.0000013850839168938478 -1.8644847207816007e-8
                      CHANNELS 3 Yrotation Xrotation Zrotation
                      End Site
                      {
                        OFFSET -0.2514739255593972 0.0000013850839168938478 -1.8644847207816007e-8
                      }
                    }
                  }
                }
                JOINT rightRingProximal
                {
                  OFFSET -0.7218060861525873 0.08118280646416753 -0.1494689818508163
                  CHANNELS 3 Yrotation Xrotation Zrotation
                  JOINT rightRingIntermediate
                  {
                    OFFSET -0.3781267508900358 0.000001373626195677602 -1.4143108284514483e-7
                    CHANNELS 3 Yrotation Xrotation Zrotation
                    JOINT rightRingDistal
                    {
                      OFFSET -0.21814333268795483 -0.0027137626495670197 -0.004991775417842292
                      CHANNELS 3 Yrotation Xrotation Zrotation
                      End Site
                      {
                        OFFSET -0.21814333268795483 -0.0027137626495670197 -0.004991775417842292
                      }
                    }
                  }
                }
                JOINT rightThumbProximal
                {
                  OFFSET -0.10743676110519984 -0.16423092885053192 -0.07708859146227388
                  CHANNELS 3 Yrotation Xrotation Zrotation
                  JOINT rightThumbIntermediate
                  {
                    OFFSET -0.40350402100066307 -0.01735099334274981 0.315629965828783
                    CHANNELS 3 Yrotation Xrotation Zrotation
                    JOINT rightThumbDistal
                    {
                      OFFSET -0.2320014489535681 -0.01842351809041043 0.21271298411519196
                      CHANNELS 3 Yrotation Xrotation Zrotation
                      End Site
                      {
                        OFFSET -0.2320014489535681 -0.01842351809041043 0.21271298411519196
                      }
                    }
                  }
                }
              }
            }
          }
        }
      }
    }
  }
  JOINT leftUpperLeg
  {
    OFFSET 0.8487163290887698 -0.43932186100277326 0
    CHANNELS 3 Yrotation Xrotation Zrotation
    JOINT leftLowerLeg
    {
      OFFSET 0 -3.882816707004296 0
      CHANNELS 3 Yrotation Xrotation Zrotation
      JOINT leftFoot
      {
        OFFSET 0 -4.570431027442807 0.004629272230691511
        CHANNELS 3 Yrotation Xrotation Zrotation
        JOINT leftToes
        {
          OFFSET 0 -0.698875637876343 1.214565366696912
          CHANNELS 3 Yrotation Xrotation Zrotation
          End Site
          {
            OFFSET 0 -0.698875637876343 1.214565366696912
          }
        }
      }
    }
  }
  JOINT rightUpperLeg
  {
    OFFSET -0.8487163290887698 -0.43932186100277326 0
    CHANNELS 3 Yrotation Xrotation Zrotation
    JOINT rightLowerLeg
    {
      OFFSET 0 -3.882816707004296 0
      CHANNELS 3 Yrotation Xrotation Zrotation
      JOINT rightFoot
      {
        OFFSET 0 -4.570431027442807 0.004629272230691511
        CHANNELS 3 Yrotation Xrotation Zrotation
        JOINT rightToes
        {
          OFFSET 0 -0.698875637876343 1.214565366696912
          CHANNELS 3 Yrotation Xrotation Zrotation
          End Site
          {
            OFFSET 0 -0.698875637876343 1.214565366696912
          }
        }
      }
    }
  }
}
MOTION
Frames: 4
Frame Time: 0.03333333333333333
-0.03783984109759331 -8.772344272660572 -0.3678831458091736 -87.1119076599333 -74.13538253539403 86.35294532550913 10.883765030133505 12.791998650997925 0.9304113232091368 2.6637399569847053 37.01113749966726 -4.033122537117622 0 0 0 2.9007982504598773 -7.2041634692868755 -8.359306927303821 -20.076325726180947 29.398575862796992 -32.429136743165174 0 0 0 0 0 0 -11.490560237145493 0.028127370467279304 -7.663596604169983 28.832355715976224 56.34493976695879 -42.574324239578445 -113.37244027332738 1.0337903876549817 0.6794365742139091 -0.5627110863184321 52.152834317775934 -9.93527831326688 -2.8468502671481435 2.1570557275360924 18.409234864657044 3.5754628114995355 1.4523810726642166 -44.20583711794189 -0.9073080998440588 0.08097283336899681 10.197517082419852 10.996920410548316 -3.3574468587616555 20.060297420808055 1.127576113505667 0.1255651909742548 -12.709861578211983 1.0662730686721487 0.11213367508554216 -12.008367241557757 2.882532398783192 -0.31874843004548226 16.795774971117126 2.612882897473399 0.7159209050347379 -30.64287518078937 -0.6403635754126965 0.040174175473906296 7.178015147473802 4.951744359793599 -0.9936349694914238 17.567242093320875 2.156966186687644 0.4759318805654677 -24.88492827743073 -0.5397141087553571 0.028507383162606446 6.045467512272919 -18.513997686764153 -15.272161701363158 10.88393927004568 26.07292799421066 8.239073300723728 22.272878253037817 -15.824852714911188 -20.66550482220184 -3.682117384630272 6.673276907493307 0.3553438567213788 6.949778040339854 -4.486971405551597 55.25091577879055 52.200594128408056 109.30531385060235 0.9847798035967643 -0.6985029544467252 1.7539814068573643 47.020549528823175 9.86771278458554 -2.430743939001289 3.6381779753992753 -14.886812317982473 -1.7285709589002156 0.40130101389633843 26.138332454981416 -1.0762446523963378 0.15049829546032945 15.921180206439747 -10.194722068093837 -1.9068285291377907 -13.372345722004185 -0.5052720599674011 0.032668883281691756 7.399539571773831 0.11728296664777604 0.0017522728588953602 -1.713048501075552 -5.0996341717807905 -0.7135780745789382 -13.234250461549243 -1.3326337734884213 0.23325163112013478 19.85538586015392 -0.1365694710590486 0.002383166977551344 1.9949545125389772 -5.275266032236273 -1.010620299283905 -16.67015599415447 -1.8011326883944954 0.4378352351949203 27.32385726833062 0.9903275572500096 0.127044237348238 -14.6205956193671 20.811461510326392 -10.649069036850848 -23.68822129366966 -30.35028665327174 18.94066836921467 -2.84046517773608 17.77093218090401 -13.72822011580924 -29.77004645412331 42.40145694853406 -16.903920870353907 -6.66648825483949 11.61449306965717 34.44749353394481 1.2669436347957015 -25.538932580795215 32.59448368162405 -19.631513799432685 0.000004463434840940913 -13.551169246140278 0.0000016544089499506106 -17.1142352239571 -2.0045892075790435 4.4261754612202635 4.016575026818673 8.081333754562992 10.484071745607864 26.16594725475473 5.995243266533227 19.780013316607576 -0.000002104360647282301 4.692104492111593 0.000007807015052637778
-0.037837591022253036 -8.77235273652013 -0.3679644465446472 -87.1119655343812 -74.13553244956019 86.35467539075006 10.875578857811389 12.791082876111748 0.9206065139977635 2.6558332393559057 37.02837918904897 -4.066437614777227 0 0 0 2.9276585178950176 -7.1943453630567165 -8.415155266495185 -20.016730666185516 29.395900585243474 -32.83418688602595 0 0 0 0 0 0 -11.470116039968469 0.031064625676938806 -7.632829527419976 28.803658481664794 56.34828604162352 -42.61241469004792 -113.384558284579 1.033921783464989 0.6793757243501509 -0.5453664014473332 52.17546609059933 -9.92216578548724 -2.867467506344394 2.157166369627391 18.399783480570278 3.570558840677192 1.447623709918582 -44.129611059476794 -0.9032307036661702 0.08024126202198527 10.151147950496338 10.981286073066475 -3.35279627990696 20.06486160880418 1.1278737311320086 0.12562805020998535 -12.713542642805775 1.0659474961174484 0.11206608009576811 -12.004611003943142 2.856442318785181 -0.31106251018801434 16.798424832154197 2.6127233547258495 0.7158322123744133 -30.640813974861185 -0.6403635754126965 0.040174175473906296 7.178015147473802 4.938239213592078 -0.9901490229496189 17.576305082162893 2.1565496098914854 0.47574436406174697 -24.880205279205878 -0.5405249875666263 0.028593570955885227 6.054533505628307 -18.54392254975153 -15.274236217144287 10.892229310434958 26.07083472887816 8.238312419837582 22.273016411684647 -15.831839310123597 -20.670326474934097 -3.673428876611603 6.6521628761766785 0.35401197099491916 6.9718497509697555 -4.442646738613428 55.22316055138328 52.18730868329795 109.27963401735846 0.9844641809089684 -0.698596793152297 1.7704983312624185 46.99720076832406 9.868884008842276 -2.4408411598703155 3.639063843763807 -14.881946609074024 -1.7288588658057555 0.40143898176673737 26.142850369599646 -1.0721245812277147 0.14932736757685955 15.85833261376281 -10.200689892264206 -1.8986420890940674 -13.313620274388194 -0.5052122447673272 0.03266405745877412 7.3992019619138745 0.11697638250917267 0.0017451638801097655 -1.7087018160613343 -5.095214046743603 -0.7120286756753178 -13.22660268509071 -1.3326447629421128 0.23325552649467554 19.855732053912693 -0.1366537542881757 0.0023844545165692794 1.9959384391931627 -5.271540048774585 -1.009270486900163 -16.66706665742301 -1.8011326883944954 0.4378352351949203 27.32385726833062 0.9907719515274428 0.12715976387900338 -14.627305072939086 20.811461510326392 -10.649069036850848 -23.68822129366966 -30.318710016112586 18.93151577642853 -2.8426365821199173 17.738773724377957 -13.722437148693688 -29.73905650404235 42.39539320896711 -16.888211200688826 -6.668376039471638 11.609059885602003 34.430462139784275 1.2410949726175506 -25.599308763424705 32.62983315944116 -19.636176551422466 -0.000009847064236578737 -13.55807129649219 0.00000754942755682941 -17.113783112784517 -2.0029331547455405 4.424433348493459 4.015517384837331 8.076891018395775 10.483549231020293 26.166325178945534 5.997153363362906 19.781416559737053 -0.000002104360647282301 4.692104492111593 0.000007807015052637778
-0.03783164173364639 -8.772368233727772 -0.36812159419059753 -87.11179467317486 -74.13588225464899 86.35774857452893 10.892905726628669 12.790867503150825 0.9162721506367192 2.652848112972455 37.043271527798716 -4.063234850056772 0 0 0 2.956603682472711 -7.189136491720448 -8.463149142796185 -19.887126726419268 29.393993635486535 -33.181262119416004 0 0 0 0 0 0 -11.450736265466004 0.032510514914800136 -7.616953626493585 28.747648936609174 56.33410798460311 -42.64936536866634 -113.38423672707046 1.0338946717377022 0.6793703877710262 -0.5416740162073193 52.18628218605627 -9.930928951640936 -2.8763217012987474 2.157685618622837 18.385448874309365 3.56739864253503 1.44457017644631 -44.08087630725039 -0.8995664840115501 0.07958526306879704 10.109573648560684 10.986572323315379 -3.35191495804571 20.051303497192094 1.1256442941931666 0.12513464790234427 -12.68777602323872 1.0664021366706113 0.11215952846829154 -12.009776185870848 2.8477281523522318 -0.3087889844283294 16.807181274012322 2.612514980448823 0.7156983729119 -30.63790754494327 -0.6403635754126965 0.040174175473906296 7.178015147473802 4.933570584456752 -0.99018115098054 17.595058909454636 2.15787476363188 0.47635392612422445 -24.89627798703186 -0.5405506529983252 0.02860008098074875 6.054808006629889 -18.56090212317054 -15.27269625892876 10.903967666201595 26.075195531437927 8.239940292632498 22.272706275880108 -15.831927127432358 -20.66989211841448 -3.6728714593911223 6.642877312349202 0.3531775781293547 6.988504013561217 -4.453282852598223 55.218263171265356 52.16244867731966 109.274261486233 0.9843927735481702 -0.6986366032647701 1.7739455340422619 46.988804320417536 9.85543596236323 -2.4520653356514566 3.640043390193109 -14.881779028261779 -1.7430153065402252 0.4084283074742899 26.373630833111456 -1.0696212789043806 0.14861258319616982 15.820392375453517 -10.204217533136099 -1.893736821339822 -13.278475248180543 -0.5052397779014854 0.032669350189230444 7.398925784627963 0.11620111761051888 0.0017212594686487732 -1.6973153524873714 -5.084139654868466 -0.709721548348966 -13.23030117460694 -1.3324882705157997 0.23319578852495318 19.852889874398382 -0.1365168440662027 0.0023749785879155385 1.9942546502124008 -5.259412257854001 -1.0051803858789112 -16.660434895552903 -1.8011326883944954 0.4378352351949203 27.32385726833062 0.9914539801024578 0.12733813630991075 -14.637654232272048 20.811461510326392 -10.649069036850848 -23.68822129366966 -30.3422442573665 18.938316086922537 -2.8410095460659823 17.66869206342793 -13.710571965820398 -29.668564364343 42.37544504901656 -16.867171250352527 -6.699356764656501 11.602184640725794 34.40679869351497 1.225487060015822 -25.78579822152536 32.68224046452664 -19.65577500334127 0.000010121028892979262 -13.555170461242454 0.000004412749403990494 -17.113135410644627 -2.0005763684881246 4.421090704148965 4.013842172867342 8.069839827285131 10.482712746750178 26.166877310745793 6.000247734424685 19.78370085091056 -0.000002104360647282301 4.692104492111593 0.000007807015052637778
-0.03782651573419571 -8.77237645916875 -0.3682006001472473 -87.11178562305786 -74.13613212002788 86.35939592057362 10.929443473659884 12.79231295691131 0.9190936774728873 2.6467099583382616 37.04796957367635 -4.041179998997766 0 0 0 2.9898908067822103 -7.188439455812956 -8.49967404989578 -19.65257948113856 29.39950879664866 -33.46825747244322 0 0 0 0 0 0 -11.432391625012432 0.032758819678845426 -7.6129772171272405 28.690390017769563 56.31417149476149 -42.674139079518206 -113.3793350732523 1.033864464577258 0.6794068899720043 -0.546626818967319 52.19004782942636 -9.955216106803794 -2.875555240979095 2.160949351458344 18.39664877500178 3.569988810891331 1.44707722715525 -44.12095759282536 -0.897602989033063 0.07923330788531299 10.08714365840056 10.994216302979613 -3.359444277523463 20.074745985491866 1.123867191932221 0.12472598283901348 -12.66745666147447 1.0674457574376675 0.11238577891892056 -12.021773801009003 2.846657047253393 -0.310400825881433 16.859136232395443 2.61236966712046 0.7156148566623505 -30.636140377407965 -0.6403635754126965 0.040174175473906296 7.178015147473802 4.934194572358638 -0.9947712998391628 17.650980682017412 2.1605067280483716 0.4775829225117277 -24.92854222658338 -0.5396495449808248 0.028502604030627977 6.044465974171514 -18.575853046714798 -15.259601760416938 10.944123440660245 26.084083762117622 8.24326162250116 22.272069741323946 -15.823596749549573 -20.66338786935318 -3.6825302783047773 6.637819812131414 0.35279433321087544 6.995035924793449 -4.471091434386426 55.23237021655354 52.14497979229943 109.27773114575854 0.9844465692279118 -0.6986306264114659 1.7614144718992737 46.983477740956864 9.825184282009092 -2.457968274373599 3.6406157195605853 -14.859681275537476 -1.7439320466931985 0.4088822331151473 26.38843669896815 -1.0715144729709427 0.14915072921437425 15.849138931111643 -10.207391982426968 -1.8893067373054937 -13.246788526030079 -0.5052026401855891 0.032666778862713824 7.3986864537115995 0.11570022673480318 0.0017065479231883846 -1.6899448983503846 -5.081112397665981 -0.7094317766962505 -13.23633800169163 -1.332344474643147 0.23315301944718803 19.85106468382854 -0.13670623453849198 0.0023811836630369143 1.9969392176325318 -5.2524133528404775 -1.0026753496335719 -16.654796374450417 -1.8011326883944954 0.4378352351949203 27.32385726833062 0.9916890057832716 0.12740271644169524 -14.641116643044683 20.811461510326392 -10.649069036850848 -23.68822129366966 -30.408100492482433 18.95738984537132 -2.8364616710938124 17.58511625240093 -13.696619432343686 -29.583373280858922 42.35822095445593 -16.855525429172992 -6.737556870904584 11.599415549459662 34.38882375074561 1.2382983475942437 -25.923406173265295 32.711645825277664 -19.653107092422815 0.0000010022669941043261 -13.553555388479314 -0.000020209012819817272 -17.112773371065312 -1.9991661426806664 4.419358760025125 4.01289212769846 8.065949091867207 10.482236695125179 26.16720470889257 6.001953959855114 19.784960155751076 -0.000002104360647282301 4.692104492111593 0.000007807015052637778
